<?xml version="1.0" standalone="no"?>
<!DOCTYPE svg PUBLIC "-//W3C//DTD SVG 20010904//EN"
 "http://www.w3.org/TR/2001/REC-SVG-20010904/DTD/svg10.dtd">
<svg version="1.0" xmlns="http://www.w3.org/2000/svg"
 width="1344.000000pt" height="1344.000000pt" viewBox="0 0 1344.000000 1344.000000"
 preserveAspectRatio="xMidYMid meet">
<metadata>
Created by potrace 1.14, written by Peter Selinger 2001-2017
</metadata>
<g transform="translate(0.000000,1344.000000) scale(0.100000,-0.100000)"
fill="#000000" stroke="none">
<path d="M6667 13414 c-20 -13 -40 -24 -46 -24 -5 0 -11 -3 -13 -7 -1 -5 -23
-21 -48 -38 -196 -130 -444 -353 -650 -585 -36 -40 -70 -78 -75 -84 -6 -6 -30
-36 -55 -66 -25 -30 -47 -57 -51 -60 -3 -3 -48 -61 -99 -130 -99 -130 -100
-132 -128 -167 -9 -11 -23 -29 -30 -40 -7 -10 -51 -72 -98 -138 -101 -141
-211 -306 -212 -319 0 -5 -7 -13 -16 -18 -9 -5 -16 -13 -16 -18 0 -4 -34 -63
-75 -130 -41 -67 -75 -124 -75 -127 0 -3 -8 -17 -18 -31 -11 -15 -34 -56 -53
-92 -18 -36 -36 -67 -39 -70 -18 -17 -330 -644 -330 -664 0 -2 -12 -30 -27
-62 -15 -33 -28 -61 -28 -64 0 -7 -33 -88 -45 -111 -5 -9 -27 -65 -50 -125
-23 -60 -49 -129 -59 -154 -9 -25 -43 -126 -75 -225 -32 -99 -61 -187 -64
-195 -3 -8 -6 -19 -7 -25 -2 -5 -10 -36 -20 -69 -9 -32 -19 -66 -20 -75 -2 -9
-4 -16 -5 -16 -2 0 -3 -5 -20 -75 -13 -52 -14 -53 -36 -140 -9 -36 -18 -74
-20 -85 -5 -32 -12 -60 -14 -60 -1 0 -3 -11 -5 -25 -4 -30 -13 -72 -25 -120
-4 -19 -14 -69 -20 -110 -7 -41 -14 -84 -17 -95 -2 -11 -6 -33 -8 -50 -3 -16
-7 -43 -9 -60 -8 -48 -19 -128 -21 -155 -2 -14 -4 -25 -5 -25 0 0 -3 -22 -4
-50 -2 -27 -7 -71 -11 -96 -22 -143 -38 -785 -22 -899 2 -14 0 -35 -5 -47 -4
-13 -4 -23 1 -23 11 0 7 -101 -5 -121 -8 -15 -217 -184 -405 -329 -42 -33 -83
-65 -90 -72 -8 -8 -84 -69 -169 -138 -85 -68 -173 -140 -194 -160 -69 -62
-206 -209 -206 -221 0 -3 -9 -17 -21 -30 -49 -56 -209 -342 -209 -373 0 -2 -5
-17 -11 -33 -6 -15 -11 -30 -11 -33 0 -3 -4 -13 -10 -23 -5 -10 -11 -28 -13
-39 -3 -11 -12 -46 -21 -77 -9 -31 -17 -65 -19 -76 -1 -11 -6 -36 -10 -55 -17
-89 -23 -187 -21 -331 2 -86 6 -161 8 -165 3 -5 8 -31 12 -59 3 -27 12 -74 20
-103 8 -29 15 -55 15 -57 1 -9 41 -194 57 -265 3 -14 7 -35 9 -47 2 -12 6 -27
10 -33 4 -6 9 -27 11 -48 3 -20 7 -45 10 -54 3 -9 7 -25 9 -35 2 -10 11 -49
20 -88 22 -91 25 -105 31 -135 3 -14 7 -33 10 -42 3 -9 7 -25 9 -35 2 -10 13
-61 25 -113 12 -52 23 -103 25 -113 2 -10 6 -26 9 -35 3 -9 8 -35 12 -57 3
-22 9 -44 12 -50 4 -5 7 -14 8 -20 4 -22 14 -73 24 -115 6 -25 13 -56 16 -70
3 -14 14 -61 24 -105 11 -44 22 -91 24 -105 3 -14 17 -74 31 -135 43 -181 54
-230 59 -261 5 -31 49 -124 58 -124 5 0 8 -7 8 -15 0 -32 189 -197 230 -200 3
-1 15 -6 26 -13 78 -43 274 -56 379 -26 26 8 152 71 168 84 6 5 39 31 72 57
59 47 109 90 170 148 18 17 56 50 86 75 127 106 275 234 281 244 4 6 8 7 8 3
0 -4 10 2 23 15 12 13 58 55 102 93 44 39 85 74 91 80 6 5 34 30 63 55 29 25
66 58 84 74 18 15 52 44 77 64 25 20 54 45 66 56 12 12 38 35 59 51 70 55 160
126 178 141 21 17 18 19 138 -77 51 -42 119 -93 149 -113 30 -20 60 -40 67
-46 7 -5 15 -10 17 -10 3 0 34 -17 68 -38 76 -46 193 -102 285 -138 38 -14 77
-30 88 -34 11 -5 38 -14 60 -20 22 -6 46 -13 53 -15 7 -3 14 -5 17 -5 3 -1 19
-6 37 -11 35 -11 58 -16 98 -24 14 -3 36 -7 50 -10 76 -16 178 -27 270 -29 36
-1 71 -6 78 -10 7 -4 12 -4 12 1 0 4 37 8 83 9 45 0 111 4 147 8 36 4 76 9 90
11 14 1 39 5 55 9 31 7 61 13 105 21 98 18 315 97 446 162 108 53 268 147 298
175 11 10 23 18 27 18 9 0 161 121 208 166 l35 33 50 -42 c28 -23 67 -55 86
-72 20 -16 55 -46 80 -65 24 -19 48 -39 54 -45 6 -5 52 -44 101 -85 50 -41 95
-79 101 -85 6 -5 28 -23 49 -40 20 -16 57 -49 81 -71 24 -23 44 -39 44 -37 0
3 28 -19 62 -49 35 -29 69 -57 76 -63 7 -5 23 -19 35 -31 12 -12 51 -45 86
-73 35 -29 70 -58 77 -64 7 -7 31 -28 54 -47 24 -19 52 -43 64 -53 11 -10 36
-31 55 -45 18 -15 48 -39 65 -55 17 -15 52 -44 79 -64 26 -21 47 -41 47 -45 0
-4 5 -8 11 -8 6 0 16 -6 23 -12 7 -7 27 -24 45 -38 18 -14 38 -30 44 -35 12
-11 85 -48 100 -51 4 -1 9 -3 12 -4 3 -1 10 -4 15 -5 6 -1 11 -3 13 -5 20 -16
205 -19 277 -4 103 22 219 84 294 160 36 35 69 76 72 89 3 14 9 25 13 25 15 0
54 136 77 266 3 16 12 58 20 94 20 86 25 110 30 140 3 14 7 37 10 52 3 15 5
30 5 33 0 2 5 19 10 37 5 18 12 49 15 68 8 47 12 65 14 65 1 0 3 11 5 25 1 14
15 79 29 145 15 66 29 138 32 160 3 21 8 43 10 47 3 4 7 24 10 45 2 21 9 53
14 73 5 19 12 53 15 75 4 22 8 48 11 57 3 9 7 27 9 40 8 39 55 272 61 298 3
14 7 36 10 50 3 14 11 57 19 95 17 86 27 135 30 155 1 8 5 26 8 40 4 14 9 36
11 50 3 14 7 36 10 50 3 13 8 40 11 60 3 19 9 60 14 90 10 61 7 380 -4 420 -4
14 -8 36 -10 50 -2 14 -4 27 -5 30 -1 3 -2 8 -2 11 1 4 -3 22 -9 40 -5 19 -12
47 -14 62 -8 43 -69 215 -101 282 -85 183 -187 329 -329 470 -97 97 -97 97
-255 225 -58 47 -107 87 -110 90 -3 3 -25 21 -50 40 -25 19 -54 42 -65 52 -11
9 -51 42 -90 73 -38 31 -77 62 -86 70 -10 7 -48 37 -85 66 -38 30 -71 56 -74
59 -3 3 -38 32 -78 64 l-72 58 6 127 c16 290 2 743 -32 1016 -2 22 -7 60 -9
85 -7 56 -14 107 -20 140 -4 24 -8 48 -20 138 -3 20 -10 57 -15 82 -5 25 -12
63 -16 85 -4 22 -8 42 -9 45 -1 6 -15 74 -21 105 -2 11 -6 31 -10 45 -3 14 -7
34 -9 45 -6 31 -86 348 -93 365 -3 8 -7 22 -8 30 -1 8 -7 29 -14 45 -6 17 -14
41 -16 55 -3 14 -7 32 -11 40 -3 8 -8 21 -10 28 -1 6 -5 18 -6 25 -2 6 -7 19
-10 27 -3 8 -21 62 -40 120 -19 58 -50 143 -67 190 -18 47 -33 90 -34 95 -1 6
-10 27 -19 49 -9 21 -17 40 -17 43 0 7 -92 228 -126 301 -19 40 -34 75 -34 77
0 3 -13 33 -30 67 -16 35 -29 67 -29 72 1 5 -3 12 -8 15 -4 3 -47 85 -96 181
-48 96 -92 182 -97 190 -5 8 -35 62 -67 120 -32 58 -63 114 -70 125 -7 11 -15
27 -19 35 -7 14 -52 90 -81 136 -7 10 -32 51 -55 89 -23 39 -45 72 -48 75 -4
3 -15 21 -26 40 -10 19 -22 39 -27 45 -4 5 -40 57 -80 115 -107 154 -234 328
-252 346 -8 8 -15 19 -15 22 0 4 -10 19 -22 32 -13 14 -34 41 -48 60 -29 42
-29 42 -80 100 -22 25 -40 48 -40 51 0 3 -10 17 -22 31 -13 14 -45 51 -73 83
-27 32 -64 73 -82 92 -17 18 -30 33 -29 33 6 0 -236 238 -294 289 -129 114
-341 270 -427 314 -28 15 -32 15 -66 -9z m223 -3138 c19 -3 46 -8 60 -12 14
-3 36 -8 50 -11 28 -5 134 -38 165 -52 86 -37 188 -92 221 -120 5 -4 20 -14
33 -20 12 -7 31 -20 40 -29 10 -9 44 -39 75 -67 180 -158 327 -426 362 -660 3
-22 7 -51 10 -65 7 -47 3 -295 -6 -295 -1 0 -3 -11 -5 -25 -7 -56 -17 -98 -38
-160 -11 -36 -22 -67 -22 -70 -3 -12 -17 -46 -24 -60 -4 -8 -24 -47 -44 -86
-21 -38 -46 -80 -57 -92 -11 -11 -20 -26 -20 -32 0 -21 -237 -247 -307 -293
-39 -25 -78 -48 -85 -49 -7 -2 -15 -5 -18 -8 -22 -23 -185 -84 -279 -106 -186
-42 -433 -40 -595 4 -20 6 -36 9 -36 7 0 -2 -27 7 -60 20 -33 13 -60 22 -60
19 0 -2 -45 19 -99 48 -145 75 -235 146 -372 295 -64 70 -148 211 -200 338
-10 26 -39 123 -45 153 -12 62 -15 80 -20 115 -8 55 -9 224 -1 282 16 118 45
243 58 251 5 3 9 11 9 19 0 7 10 35 22 62 12 26 21 51 20 56 -1 4 2 7 7 7 5 0
12 10 15 23 8 31 121 185 182 249 116 122 273 225 449 298 36 15 100 34 107
32 4 -1 20 3 35 9 15 6 39 13 53 14 41 5 105 17 108 20 5 5 274 -3 312 -9z"/>
<path d="M6689 9605 c-3 -2 -20 -7 -39 -10 -19 -3 -48 -8 -65 -12 -16 -4 -32
-7 -35 -8 -3 0 -14 -6 -25 -12 -11 -6 -24 -11 -28 -11 -4 0 -33 -15 -63 -32
-60 -34 -161 -130 -184 -176 -8 -16 -19 -36 -26 -44 -21 -27 -54 -138 -58
-197 -3 -32 -6 -60 -7 -63 -1 -3 0 -9 1 -15 1 -5 3 -26 5 -45 7 -76 16 -105
55 -186 31 -65 57 -101 112 -154 38 -39 75 -70 80 -70 6 0 22 -9 37 -19 92
-66 307 -86 446 -43 202 63 362 263 380 477 3 37 8 71 11 76 3 5 2 9 -3 9 -4
0 -8 14 -9 31 -2 51 -26 143 -43 163 -9 10 -15 20 -13 22 8 11 -65 112 -114
159 -43 42 -171 124 -181 117 -2 -1 -22 5 -45 14 -23 8 -71 17 -106 19 -36 3
-68 7 -72 10 -4 2 -9 3 -11 0z"/>
<path d="M5310 2621 c-88 -27 -165 -95 -194 -172 -15 -40 -17 -107 -14 -734
l3 -690 25 -40 c42 -68 129 -132 195 -142 46 -8 92 -9 115 -2 14 4 32 8 40 10
38 10 97 60 298 257 69 67 126 121 127 120 7 -9 427 -831 503 -983 14 -27 32
-58 40 -67 8 -10 12 -18 8 -18 -12 0 35 -62 71 -96 74 -67 229 -82 318 -30 57
34 90 70 125 138 14 29 79 154 142 278 135 262 328 639 370 724 l29 59 56 -54
c30 -30 89 -88 132 -129 167 -164 201 -190 266 -207 39 -10 101 -6 159 11 48
14 71 29 119 77 33 33 57 63 53 66 -3 3 0 13 7 21 9 12 12 170 12 700 1 628
-1 689 -17 735 -21 61 -87 126 -156 154 -59 25 -176 29 -207 7 -11 -8 -27 -14
-37 -14 -10 0 -18 -4 -18 -10 0 -5 -4 -10 -10 -10 -5 0 -37 -13 -70 -29 -33
-16 -60 -27 -60 -25 0 3 -14 -3 -30 -11 -58 -30 -330 -119 -338 -110 -3 2 -12
0 -22 -5 -9 -5 -28 -11 -41 -14 -13 -2 -44 -9 -69 -15 -25 -5 -67 -13 -95 -17
-27 -3 -58 -8 -67 -9 -27 -5 -138 -16 -194 -19 -28 -2 -57 -6 -64 -11 -9 -6
-11 -4 -5 5 6 9 4 11 -4 5 -15 -8 -59 -9 -236 0 -121 5 -200 11 -200 15 0 1
-20 3 -45 5 -25 3 -65 9 -90 15 -25 6 -58 12 -75 14 -135 18 -415 112 -605
204 -41 20 -78 36 -82 37 -3 0 -10 3 -14 8 -9 9 -121 8 -154 -2z"/>
</g>
</svg>
